name analog
datacolumns 19
datarows 64
range 0.0 0.0315
endheader
time	ground_force_vx	ground_force_vy	ground_force_vz	ground_force_px	ground_force_py	ground_force_pz	l_ground_force_vx	l_ground_force_vy	l_ground_force_vz	l_ground_force_px	l_ground_force_py	l_ground_force_pz	ground_torque_x	ground_torque_y	ground_torque_z	l_ground_torque_x	l_ground_torque_y	l_ground_torque_z
0.0	-0.0	-0.0	-0.0	-2.207148551940918	-7.1535258293151855	-822.83056640625	-0.0	-0.0	-0.0	-0.0	-0.0	-0.0	-0.0	-0.0	-0.0	-0.0	-0.0	-0.0
0.0005	-0.0	-0.0	-0.0	-2.208269596099853	-6.952171325683594	-822.5560302734375	-0.0	-0.0	-0.0	-0.0	-0.0	-0.0	-0.0	-0.0	-0.0	-0.0	-0.0	-0.0
0.001	-0.0	-0.0	-0.0	-1.760862946510315	-6.72725772857666	-823.436279296875	-0.0	-0.0	-0.0	-0.0	-0.0	-0.0	-0.0	-0.0	-0.0	-0.0	-0.0	-0.0
0.0015	-0.0	-0.0	-0.0	-2.14105224609375	-7.0223469734191895	-823.3434448242188	-0.0	-0.0	-0.0	-0.0	-0.0	-0.0	-0.0	-0.0	-0.0	-0.0	-0.0	-0.0
0.002	-0.0	-0.0	-0.0	-1.6949996948242188	-7.199322700500488	-826.7010498046875	-0.0	-0.0	-0.0	-0.0	-0.0	-0.0	-0.0	-0.0	-0.0	-0.0	-0.0	-0.0
0.0025	-0.0	-0.0	-0.0	-2.4305386543273926	-6.593860149383545	-829.78564453125	-0.0	-0.0	-0.0	-0.0	-0.0	-0.0	-0.0	-0.0	-0.0	-0.0	-0.0	-0.0
0.003	-0.0	-0.0	-0.0	-2.345020294189453	-6.5738301277160645	-828.826904296875	-0.0	-0.0	-0.0	-0.0	-0.0	-0.0	-0.0	-0.0	-0.0	-0.0	-0.0	-0.0
0.0035	-0.0	-0.0	-0.0	-2.143061399459839	-6.506519317626953	-833.771484375	-0.0	-0.0	-0.0	-0.0	-0.0	-0.0	-0.0	-0.0	-0.0	-0.0	-0.0	-0.0
0.004	-0.0	-0.0	-0.0	-2.3194732666015625	-5.819543361663818	-833.220458984375	-0.0	-0.0	-0.0	-0.0	-0.0	-0.0	-0.0	-0.0	-0.0	-0.0	-0.0	-0.0
0.0045000000000000005	-0.0	-0.0	-0.0	-2.589355707168579	-5.082681655883789	-835.510986328125	-0.0	-0.0	-0.0	-0.0	-0.0	-0.0	-0.0	-0.0	-0.0	-0.0	-0.0	-0.0
0.005	-0.0	-0.0	-0.0	-2.741418600082397	-4.656462669372559	-836.4351196289062	-0.0	-0.0	-0.0	-0.0	-0.0	-0.0	-0.0	-0.0	-0.0	-0.0	-0.0	-0.0
0.0055	-0.0	-0.0	-0.0	-3.146591663360596	-4.394150733947754	-837.046630859375	-0.0	-0.0	-0.0	-0.0	-0.0	-0.0	-0.0	-0.0	-0.0	-0.0	-0.0	-0.0
0.006	-0.0	-0.0	-0.0	-3.143995523452759	-3.900129556655884	-837.849853515625	-0.0	-0.0	-0.0	-0.0	-0.0	-0.0	-0.0	-0.0	-0.0	-0.0	-0.0	-0.0
0.006500000000000001	-0.0	-0.0	-0.0	-3.233180046081543	-3.189913272857666	-838.0104370117188	-0.0	-0.0	-0.0	-0.0	-0.0	-0.0	-0.0	-0.0	-0.0	-0.0	-0.0	-0.0
0.007	-0.0	-0.0	-0.0	-2.611626625061035	-2.873716354370117	-836.87744140625	-0.0	-0.0	-0.0	-0.0	-0.0	-0.0	-0.0	-0.0	-0.0	-0.0	-0.0	-0.0
0.0075	-0.0	-0.0	-0.0	-3.0393857955932617	-2.563277006149292	-835.0025634765625	-0.0	-0.0	-0.0	-0.0	-0.0	-0.0	-0.0	-0.0	-0.0	-0.0	-0.0	-0.0
0.008	-0.0	-0.0	-0.0	-3.082563161849976	-2.2035791873931885	-833.9302978515625	-0.0	-0.0	-0.0	-0.0	-0.0	-0.0	-0.0	-0.0	-0.0	-0.0	-0.0	-0.0
0.0085	-0.0	-0.0	-0.0	-2.6300320625305176	-2.1210379600524902	-833.4913940429688	-0.0	-0.0	-0.0	-0.0	-0.0	-0.0	-0.0	-0.0	-0.0	-0.0	-0.0	-0.0
0.009000000000000001	-0.0	-0.0	-0.0	-2.1161162853240967	-2.071404933929444	-832.0780639648438	-0.0	-0.0	-0.0	-0.0	-0.0	-0.0	-0.0	-0.0	-0.0	-0.0	-0.0	-0.0
0.0095	-0.0	-0.0	-0.0	-2.2766671180725098	-2.2496438026428223	-833.504638671875	-0.0	-0.0	-0.0	-0.0	-0.0	-0.0	-0.0	-0.0	-0.0	-0.0	-0.0	-0.0
0.01	-0.0	-0.0	-0.0	-1.830692172050476	-3.0341837406158447	-832.6987915039062	-0.0	-0.0	-0.0	-0.0	-0.0	-0.0	-0.0	-0.0	-0.0	-0.0	-0.0	-0.0
0.0105	-0.0	-0.0	-0.0	-1.784210205078125	-3.009127378463745	-833.8577880859375	-0.0	-0.0	-0.0	-0.0	-0.0	-0.0	-0.0	-0.0	-0.0	-0.0	-0.0	-0.0
0.011	-0.0	-0.0	-0.0	-1.737618923187256	-3.3869552612304688	-833.23583984375	-0.0	-0.0	-0.0	-0.0	-0.0	-0.0	-0.0	-0.0	-0.0	-0.0	-0.0	-0.0
0.0115	-0.0	-0.0	-0.0	-1.6949996948242188	-3.543964385986328	-833.0672607421875	-0.0	-0.0	-0.0	-0.0	-0.0	-0.0	-0.0	-0.0	-0.0	-0.0	-0.0	-0.0
0.012	-0.0	-0.0	-0.0	-2.12410306930542	-3.5227904319763184	-832.2769775390625	-0.0	-0.0	-0.0	-0.0	-0.0	-0.0	-0.0	-0.0	-0.0	-0.0	-0.0	-0.0
0.0125	-0.0	-0.0	-0.0	-2.3874735832214355	-3.353304147720337	-831.0323486328125	-0.0	-0.0	-0.0	-0.0	-0.0	-0.0	-0.0	-0.0	-0.0	-0.0	-0.0	-0.0
0.013000000000000001	-0.0	-0.0	-0.0	-2.587104797363281	-3.170910358428955	-830.7630004882812	-0.0	-0.0	-0.0	-0.0	-0.0	-0.0	-0.0	-0.0	-0.0	-0.0	-0.0	-0.0
0.0135	-0.0	-0.0	-0.0	-2.429816246032715	-3.009320020675659	-829.5174560546875	-0.0	-0.0	-0.0	-0.0	-0.0	-0.0	-0.0	-0.0	-0.0	-0.0	-0.0	-0.0
0.014	-0.0	-0.0	-0.0	-3.0331573486328125	-2.511915445327759	-827.937255859375	-0.0	-0.0	-0.0	-0.0	-0.0	-0.0	-0.0	-0.0	-0.0	-0.0	-0.0	-0.0
0.0145	-0.0	-0.0	-0.0	-2.7493746280670166	-2.537758111953736	-827.397705078125	-0.0	-0.0	-0.0	-0.0	-0.0	-0.0	-0.0	-0.0	-0.0	-0.0	-0.0	-0.0
0.015	-0.0	-0.0	-0.0	-3.0962576866149902	-2.4014487266540527	-826.3577880859375	-0.0	-0.0	-0.0	-0.0	-0.0	-0.0	-0.0	-0.0	-0.0	-0.0	-0.0	-0.0
0.0155	-0.0	-0.0	-0.0	-3.2273411750793457	-2.7420666217803955	-825.5891723632812	-0.0	-0.0	-0.0	-0.0	-0.0	-0.0	-0.0	-0.0	-0.0	-0.0	-0.0	-0.0
0.016	-0.0	-0.0	-0.0	-2.8440985679626465	-2.804950714111328	-825.6727294921875	-0.0	-0.0	-0.0	-0.0	-0.0	-0.0	-0.0	-0.0	-0.0	-0.0	-0.0	-0.0
0.0165	-0.0	-0.0	-0.0	-2.949420928955078	-2.8676187992095947	-824.9021606445312	-0.0	-0.0	-0.0	-0.0	-0.0	-0.0	-0.0	-0.0	-0.0	-0.0	-0.0	-0.0
0.017	-0.0	-0.0	-0.0	-2.602370500564575	-3.0930631160736084	-826.3583374023438	-0.0	-0.0	-0.0	-0.0	-0.0	-0.0	-0.0	-0.0	-0.0	-0.0	-0.0	-0.0
0.0175	-0.0	-0.0	-0.0	-2.019537210464477	-3.565216064453125	-827.5006103515625	-0.0	-0.0	-0.0	-0.0	-0.0	-0.0	-0.0	-0.0	-0.0	-0.0	-0.0	-0.0
0.018000000000000002	-0.0	-0.0	-0.0	-2.5513055324554443	-3.5235836505889893	-825.005126953125	-0.0	-0.0	-0.0	-0.0	-0.0	-0.0	-0.0	-0.0	-0.0	-0.0	-0.0	-0.0
0.0185	-0.0	-0.0	-0.0	-2.230262756347656	-3.1731603145599365	-826.6534423828125	-0.0	-0.0	-0.0	-0.0	-0.0	-0.0	-0.0	-0.0	-0.0	-0.0	-0.0	-0.0
0.019	-0.0	-0.0	-0.0	-2.607885360717773	-2.935220003128052	-826.087890625	-0.0	-0.0	-0.0	-0.0	-0.0	-0.0	-0.0	-0.0	-0.0	-0.0	-0.0	-0.0
0.0195	-0.0	-0.0	-0.0	-2.087080955505371	-2.605504512786865	-825.3814697265625	-0.0	-0.0	-0.0	-0.0	-0.0	-0.0	-0.0	-0.0	-0.0	-0.0	-0.0	-0.0
0.02	-0.0	-0.0	-0.0	-2.47719144821167	-2.276021957397461	-825.8167114257812	-0.0	-0.0	-0.0	-0.0	-0.0	-0.0	-0.0	-0.0	-0.0	-0.0	-0.0	-0.0
0.0205	-0.0	-0.0	-0.0	-2.0932040214538574	-1.898881196975708	-824.813232421875	-0.0	-0.0	-0.0	-0.0	-0.0	-0.0	-0.0	-0.0	-0.0	-0.0	-0.0	-0.0
0.021	-0.0	-0.0	-0.0	-2.086484909057617	-1.6043472290039062	-825.244384765625	-0.0	-0.0	-0.0	-0.0	-0.0	-0.0	-0.0	-0.0	-0.0	-0.0	-0.0	-0.0
0.021500000000000002	-0.0	-0.0	-0.0	-1.8390107154846191	-0.9872251152992249	-824.94677734375	-0.0	-0.0	-0.0	-0.0	-0.0	-0.0	-0.0	-0.0	-0.0	-0.0	-0.0	-0.0
0.022	-0.0	-0.0	-0.0	-1.0980311632156372	-0.8982342481613159	-824.1041870117188	-0.0	-0.0	-0.0	-0.0	-0.0	-0.0	-0.0	-0.0	-0.0	-0.0	-0.0	-0.0
0.0225	-0.0	-0.0	-0.0	-1.1667760610580444	-0.5553067326545715	-823.8340454101562	-0.0	-0.0	-0.0	-0.0	-0.0	-0.0	-0.0	-0.0	-0.0	-0.0	-0.0	-0.0
0.023	-0.0	-0.0	-0.0	-0.0410078503191471	-0.6167244911193848	-824.0784912109375	-0.0	-0.0	-0.0	-0.0	-0.0	-0.0	-0.0	-0.0	-0.0	-0.0	-0.0	-0.0
0.0235	-0.0	-0.0	-0.0	-0.4051223695278168	-0.7539366483688354	-825.0283203125	-0.0	-0.0	-0.0	-0.0	-0.0	-0.0	-0.0	-0.0	-0.0	-0.0	-0.0	-0.0
0.024	-0.0	-0.0	-0.0	0.5557066202163696	-1.3982317447662354	-823.96875	-0.0	-0.0	-0.0	-0.0	-0.0	-0.0	-0.0	-0.0	-0.0	-0.0	-0.0	-0.0
0.0245	-0.0	-0.0	-0.0	0.866478681564331	-2.200289011001587	-823.5855712890625	-0.0	-0.0	-0.0	-0.0	-0.0	-0.0	-0.0	-0.0	-0.0	-0.0	-0.0	-0.0
0.025	-0.0	-0.0	-0.0	0.960949718952179	-2.763042449951172	-824.7864379882812	-0.0	-0.0	-0.0	-0.0	-0.0	-0.0	-0.0	-0.0	-0.0	-0.0	-0.0	-0.0
0.025500000000000002	-0.0	-0.0	-0.0	1.4273681640625	-3.0914111137390137	-824.7371215820312	-0.0	-0.0	-0.0	-0.0	-0.0	-0.0	-0.0	-0.0	-0.0	-0.0	-0.0	-0.0
0.026000000000000002	-0.0	-0.0	-0.0	1.7356102466583252	-3.784050941467285	-825.0455322265625	-0.0	-0.0	-0.0	-0.0	-0.0	-0.0	-0.0	-0.0	-0.0	-0.0	-0.0	-0.0
0.0265	-0.0	-0.0	-0.0	1.4557794332504272	-3.893352031707764	-824.594970703125	-0.0	-0.0	-0.0	-0.0	-0.0	-0.0	-0.0	-0.0	-0.0	-0.0	-0.0	-0.0
0.027	-0.0	-0.0	-0.0	1.2571548223495483	-4.326924800872803	-824.7553100585938	-0.0	-0.0	-0.0	-0.0	-0.0	-0.0	-0.0	-0.0	-0.0	-0.0	-0.0	-0.0
0.0275	-0.0	-0.0	-0.0	1.2489471435546875	-4.565844058990479	-824.3551025390625	-0.0	-0.0	-0.0	-0.0	-0.0	-0.0	-0.0	-0.0	-0.0	-0.0	-0.0	-0.0
0.028	-0.0	-0.0	-0.0	1.349812388420105	-4.78437614440918	-824.0025634765625	-0.0	-0.0	-0.0	-0.0	-0.0	-0.0	-0.0	-0.0	-0.0	-0.0	-0.0	-0.0
0.0285	-0.0	-0.0	-0.0	1.5654860734939575	-4.585917472839356	-822.4421997070312	-0.0	-0.0	-0.0	-0.0	-0.0	-0.0	-0.0	-0.0	-0.0	-0.0	-0.0	-0.0
0.029	-0.0	-0.0	-0.0	1.8620675802230835	-4.841887950897217	-821.9293212890625	-0.0	-0.0	-0.0	-0.0	-0.0	-0.0	-0.0	-0.0	-0.0	-0.0	-0.0	-0.0
0.029500000000000002	-0.0	-0.0	-0.0	1.6771697998046875	-3.959607362747192	-821.72607421875	-0.0	-0.0	-0.0	-0.0	-0.0	-0.0	-0.0	-0.0	-0.0	-0.0	-0.0	-0.0
0.03	-0.0	-0.0	-0.0	2.000779867172241	-3.2597105503082275	-819.1036376953125	-0.0	-0.0	-0.0	-0.0	-0.0	-0.0	-0.0	-0.0	-0.0	-0.0	-0.0	-0.0
0.0305	-0.0	-0.0	-0.0	1.1997634172439575	-3.168703556060791	-818.0439453125	-0.0	-0.0	-0.0	-0.0	-0.0	-0.0	-0.0	-0.0	-0.0	-0.0	-0.0	-0.0
0.031	-0.0	-0.0	-0.0	1.822809338569641	-3.545259475708008	-816.59423828125	-0.0	-0.0	-0.0	-0.0	-0.0	-0.0	-0.0	-0.0	-0.0	-0.0	-0.0	-0.0
0.0315	-0.0	-0.0	-0.0	1.7044672966003418	-4.109457492828369	-818.002197265625	-0.0	-0.0	-0.0	-0.0	-0.0	-0.0	-0.0	-0.0	-0.0	-0.0	-0.0	-0.0
